<?xml version="1.0" encoding="UTF-8"?>
<svg xmlns="http://www.w3.org/2000/svg" xmlns:xlink="http://www.w3.org/1999/xlink" width="172.26pt" height="57.07pt" viewBox="0 0 172.26 57.07" version="1.1">
<defs>
<clipPath id="clip1">
  <path d="M 10 6 L 62 6 L 62 57.070313 L 10 57.070313 Z M 10 6 "/>
</clipPath>
<clipPath id="clip2">
  <path d="M 163 23 L 172.261719 23 L 172.261719 39 L 163 39 Z M 163 23 "/>
</clipPath>
</defs>
<g id="surface1">
<g clip-path="url(#clip1)" clip-rule="nonzero">
<path style=" stroke:none;fill-rule:nonzero;fill:rgb(98.799133%,76.499939%,1.998901%);fill-opacity:1;" d="M 58.152344 25.507813 C 57.71875 25.941406 56.808594 26.226563 56.664063 24.933594 C 56.523438 23.636719 56.472656 22.726563 56.472656 22.726563 C 56.472656 22.726563 54.554688 19.320313 53.835938 19.269531 C 53.113281 19.222656 48.027344 22.726563 46.683594 24.210938 C 45.527344 25.496094 45.292969 25.410156 45.292969 27.667969 C 45.292969 29.371094 45.511719 35.796875 45.390625 40.71875 C 45.390625 40.71875 43.230469 41.292969 37.28125 42.875 C 31.332031 44.460938 29.507813 44.652344 29.507813 44.652344 L 28.5 38.847656 C 28.5 38.847656 28.5 38.847656 28.496094 38.847656 C 28.492188 38.84375 28.480469 38.84375 28.460938 38.839844 C 28.457031 38.839844 28.457031 38.839844 28.457031 38.839844 C 28.445313 38.835938 28.433594 38.835938 28.421875 38.835938 C 28.40625 38.832031 28.390625 38.828125 28.371094 38.828125 L 25.8125 25.699219 C 25.8125 25.699219 22.023438 24.257813 20.632813 23.875 C 19.238281 23.492188 18.378906 23.203125 16.601563 24.5 C 14.824219 25.796875 14.875 28.339844 14.875 28.339844 C 14.875 28.339844 15.304688 29.296875 15.355469 29.777344 C 15.402344 30.257813 14.152344 30.210938 13.339844 30.210938 C 12.523438 30.210938 12.425781 28.769531 13.050781 27.089844 C 13.671875 25.410156 14.96875 23.398438 14.96875 23.398438 C 14.96875 23.398438 16.167969 21.140625 17.03125 20.519531 C 17.03125 20.519531 17.175781 20.183594 18.28125 20.277344 C 19.382813 20.375 25.527344 20.710938 25.527344 20.710938 L 25.578125 18.445313 C 32.242188 17.535156 39.011719 17.078125 45.734375 17.113281 C 45.722656 17.71875 45.707031 18.328125 45.675781 18.933594 C 45.675781 18.933594 50.042969 16.917969 53.785156 16.964844 C 53.785156 16.964844 54.21875 16.917969 54.554688 17.351563 C 54.890625 17.78125 56.953125 20.324219 57.191406 20.710938 C 57.433594 21.09375 58.394531 22.4375 59.015625 23.734375 C 59.015625 23.734375 58.585938 25.074219 58.152344 25.507813 M 59.625 21.738281 C 54.195313 8.746094 39.261719 2.613281 26.269531 8.042969 C 13.277344 13.46875 7.144531 28.402344 12.574219 41.394531 C 16.144531 49.941406 23.828125 55.519531 32.367188 56.792969 C 31.789063 54.710938 31.210938 52.410156 30.679688 49.964844 C 32.171875 50.953125 33.757813 51.765625 35.429688 52.511719 C 35.421875 52.515625 35.417969 52.519531 35.410156 52.519531 C 35.410156 52.519531 35.527344 54.667969 35.6875 57.066406 C 37.453125 57.097656 39.238281 56.941406 41.011719 56.589844 C 40.96875 56.433594 40.96875 56.1875 41.023438 55.832031 C 41.308594 53.976563 42.109375 50.617188 42.265625 48.457031 C 43.390625 47.398438 44.394531 46.140625 45.152344 44.757813 C 45.152344 44.773438 45.152344 44.785156 45.148438 44.796875 C 45.132813 44.941406 45.113281 45.082031 45.09375 45.226563 C 44.542969 49.472656 43.398438 54.003906 42.703125 55.253906 C 42.460938 55.691406 42.160156 56.109375 41.878906 56.402344 C 43.238281 56.085938 44.59375 55.652344 45.925781 55.09375 C 58.917969 49.664063 65.050781 34.730469 59.625 21.738281 "/>
</g>
<path style=" stroke:none;fill-rule:nonzero;fill:rgb(93.699646%,38.398743%,31.799316%);fill-opacity:1;" d="M 56.210938 19.425781 C 56.683594 20.023438 57.09375 20.550781 57.191406 20.710938 C 57.433594 21.09375 58.394531 22.4375 59.015625 23.734375 C 59.015625 23.734375 58.585938 25.074219 58.152344 25.507813 C 57.71875 25.941406 56.808594 26.226563 56.664063 24.933594 C 56.523438 23.636719 56.472656 22.726563 56.472656 22.726563 C 56.472656 22.726563 54.554688 19.316406 53.835938 19.269531 C 53.113281 19.222656 48.027344 22.726563 46.683594 24.210938 C 45.527344 25.496094 45.292969 25.414063 45.292969 27.667969 C 45.292969 29.164063 45.460938 34.289063 45.421875 38.84375 C 47.222656 39.050781 49.871094 39.550781 50.667969 40.71875 C 50.667969 40.71875 50.378906 33.570313 58.441406 37.3125 C 58.441406 37.3125 58.726563 27.570313 69.859375 30.066406 C 69.859375 30.066406 64.214844 23.136719 56.210938 19.425781 "/>
<path style=" stroke:none;fill-rule:nonzero;fill:rgb(93.699646%,38.398743%,31.799316%);fill-opacity:1;" d="M 45.734375 17.113281 C 45.878906 8.636719 44.335938 0.652344 44.335938 0.652344 C 44.335938 0.652344 44.191406 -0.640625 43.46875 0.414063 C 42.75 1.46875 42.273438 4.347656 42.273438 4.347656 C 34.835938 3.917969 29.507813 4.683594 29.507813 4.683594 C 28.691406 1.949219 27.300781 0.75 26.628906 1.039063 C 25.957031 1.324219 25.910156 4.347656 25.910156 4.347656 L 25.578125 18.445313 C 32.242188 17.535156 39.011719 17.078125 45.734375 17.113281 "/>
<path style=" stroke:none;fill-rule:nonzero;fill:rgb(89.399719%,33.299255%,27.099609%);fill-opacity:1;" d="M 45.152344 44.761719 C 45.28125 43.699219 45.355469 42.285156 45.390625 40.71875 C 45.390625 40.71875 43.230469 41.292969 37.28125 42.878906 C 31.332031 44.460938 29.507813 44.652344 29.507813 44.652344 L 30.613281 49.640625 C 30.636719 49.75 30.65625 49.859375 30.679688 49.96875 C 32.171875 50.953125 33.757813 51.765625 35.429688 52.511719 C 39.785156 50.355469 42.269531 48.394531 42.269531 48.394531 C 42.269531 48.414063 42.269531 48.4375 42.265625 48.457031 C 43.390625 47.398438 44.394531 46.140625 45.152344 44.761719 "/>
<path style=" stroke:none;fill-rule:nonzero;fill:rgb(0%,0%,0%);fill-opacity:1;" d="M 31.859375 13.992188 C 31.8125 13.902344 32.878906 14.671875 33.265625 14.914063 C 33.648438 15.152344 33.875 15.335938 33.875 15.503906 C 33.875 15.671875 33.609375 15.839844 33.25 15.839844 C 32.890625 15.839844 32.339844 15.71875 32.292969 15.574219 C 32.292969 15.574219 32.890625 15.550781 33.226563 15.550781 L 33.515625 15.550781 C 33.515625 15.550781 32.125 14.519531 31.859375 13.992188 "/>
<path style=" stroke:none;fill-rule:nonzero;fill:rgb(0%,0%,0%);fill-opacity:1;" d="M 39.328125 14.105469 C 39.328125 14.105469 38.28125 15.378906 38.242188 15.4375 C 38.203125 15.496094 38.078125 15.777344 38.429688 15.730469 C 38.78125 15.683594 39.539063 15.503906 39.644531 15.449219 C 39.753906 15.390625 39.714844 15.25 39.53125 15.273438 C 39.324219 15.292969 38.847656 15.320313 38.542969 15.378906 L 39.386719 14.117188 C 39.386719 14.117188 39.410156 14 39.328125 14.105469 "/>
<path style=" stroke:none;fill-rule:nonzero;fill:rgb(0%,0%,0%);fill-opacity:1;" d="M 36.199219 20.195313 C 36.199219 20.195313 37.007813 19.84375 37.285156 19.1875 C 37.566406 18.53125 37.324219 18.273438 36.847656 18.207031 C 36.367188 18.144531 35.507813 18.179688 35.109375 18.546875 C 34.714844 18.917969 34.769531 19.277344 35.054688 19.5 C 35.34375 19.726563 35.902344 20.105469 36.199219 20.195313 "/>
<path style=" stroke:none;fill-rule:nonzero;fill:rgb(93.699646%,38.398743%,31.799316%);fill-opacity:1;" d="M 35.792969 21.445313 C 35.792969 21.445313 35.613281 21.816406 35.335938 22.039063 C 35.09375 22.230469 34.769531 22.402344 34.320313 22.425781 C 33.679688 22.457031 33.261719 22.253906 32.867188 21.980469 C 32.664063 21.839844 32.472656 21.726563 32.335938 21.539063 C 32.179688 21.355469 31.980469 21.285156 31.980469 21.285156 C 31.980469 21.285156 32.726563 25.382813 34.542969 26.03125 C 36.359375 26.675781 36.6875 25.28125 36.742188 24.898438 C 36.792969 24.570313 36.742188 22.816406 35.921875 21.675781 C 35.910156 21.371094 35.894531 21.574219 35.792969 21.445313 "/>
<path style=" stroke:none;fill-rule:nonzero;fill:rgb(0%,0%,0%);fill-opacity:1;" d="M 34.152344 22.578125 L 34.136719 22.578125 C 32.84375 22.566406 31.847656 21.21875 31.804688 21.160156 C 31.757813 21.09375 31.773438 21.003906 31.835938 20.957031 C 31.902344 20.910156 31.992188 20.925781 32.039063 20.988281 C 32.046875 21.003906 32.992188 22.28125 34.140625 22.289063 L 34.152344 22.289063 C 34.738281 22.289063 35.285156 21.957031 35.78125 21.300781 L 35.921875 21.109375 L 36.027344 21.324219 C 36.027344 21.332031 36.398438 22.078125 37.011719 22.117188 C 37.507813 22.148438 38.066406 21.707031 38.628906 20.839844 C 38.671875 20.773438 38.761719 20.753906 38.828125 20.796875 C 38.894531 20.839844 38.910156 20.929688 38.867188 20.996094 C 38.234375 21.972656 37.605469 22.445313 36.992188 22.40625 C 36.429688 22.367188 36.050781 21.910156 35.875 21.640625 C 35.355469 22.261719 34.777344 22.578125 34.152344 22.578125 "/>
<path style=" stroke:none;fill-rule:nonzero;fill:rgb(6.698608%,6.698608%,6.698608%);fill-opacity:1;" d="M 33.699219 33.019531 L 37.8125 27.636719 L 37.007813 31.636719 L 38.964844 30.820313 L 34.851563 36.207031 L 35.65625 32.203125 Z M 41.054688 29.214844 L 37.933594 30.519531 L 39.078125 24.90625 L 31.609375 34.625 L 34.730469 33.324219 L 33.585938 38.933594 "/>
<path style=" stroke:none;fill-rule:nonzero;fill:rgb(93.699646%,38.398743%,31.799316%);fill-opacity:1;" d="M 45.675781 18.914063 C 45.675781 18.914063 43.136719 21.160156 40.617188 24.105469 C 38.097656 27.050781 35.324219 28.980469 35.324219 28.980469 C 35.109375 28.453125 33.707031 27.472656 33.707031 27.472656 C 33.707031 27.472656 30.574219 25.332031 28.523438 23.648438 C 27.34375 22.683594 26.179688 21.484375 25.398438 20.640625 C 25.109375 20.625 24.335938 20.582031 23.394531 20.53125 C 28.085938 27.496094 35.363281 29.328125 35.363281 29.328125 C 36.226563 29.1875 38.636719 27.472656 40.433594 26.070313 C 42.234375 24.664063 45.183594 21.546875 46.375 20.179688 C 46.972656 19.484375 47.316406 18.757813 47.507813 18.207031 C 46.398438 18.589844 45.675781 18.914063 45.675781 18.914063 "/>
<path style=" stroke:none;fill-rule:nonzero;fill:rgb(93.699646%,38.398743%,31.799316%);fill-opacity:1;" d="M 25.8125 25.699219 C 25.8125 25.699219 22.023438 24.261719 20.632813 23.875 C 19.242188 23.492188 18.375 23.203125 16.601563 24.5 C 14.828125 25.796875 14.875 28.339844 14.875 28.339844 C 14.875 28.339844 15.304688 29.296875 15.355469 29.777344 C 15.402344 30.257813 14.15625 30.210938 13.339844 30.210938 C 12.523438 30.210938 12.425781 28.769531 13.050781 27.089844 C 13.675781 25.410156 14.96875 23.398438 14.96875 23.398438 C 9.546875 26.226563 0 32.753906 0 32.753906 C 0 32.753906 2.925781 32.464844 8.15625 32.992188 C 13.386719 33.519531 13.097656 37.648438 13.097656 37.648438 C 13.097656 37.648438 16.601563 36.6875 18.710938 36.542969 C 20.824219 36.398438 20.96875 38.65625 20.96875 38.65625 L 21.496094 42.492188 C 21.496094 42.492188 21.976563 41.871094 24.132813 40.140625 C 25.988281 38.660156 28.003906 38.785156 28.5 38.847656 "/>
<path style=" stroke:none;fill-rule:nonzero;fill:rgb(6.698608%,6.698608%,6.698608%);fill-opacity:1;" d="M 89.558594 37.121094 C 88.894531 36.265625 88.566406 35.039063 88.566406 33.429688 L 88.566406 28.09375 C 88.566406 26.449219 88.894531 25.207031 89.550781 24.367188 C 90.207031 23.527344 91.332031 23.105469 92.925781 23.105469 C 94.449219 23.105469 95.523438 23.476563 96.15625 24.21875 C 96.789063 24.960938 97.101563 26.027344 97.101563 27.414063 L 97.101563 28.664063 L 94.160156 28.664063 L 94.160156 27.285156 C 94.160156 26.84375 94.136719 26.488281 94.09375 26.214844 C 94.050781 25.945313 93.941406 25.722656 93.765625 25.542969 C 93.585938 25.367188 93.3125 25.277344 92.945313 25.277344 C 92.394531 25.277344 92.035156 25.457031 91.878906 25.8125 C 91.71875 26.167969 91.640625 26.6875 91.640625 27.375 L 91.640625 34.148438 C 91.640625 34.847656 91.730469 35.371094 91.914063 35.710938 C 92.097656 36.054688 92.441406 36.230469 92.945313 36.230469 C 93.460938 36.230469 93.792969 36.054688 93.9375 35.703125 C 94.085938 35.355469 94.160156 34.835938 94.160156 34.148438 L 94.160156 32.695313 L 97.101563 32.695313 L 97.101563 33.925781 C 97.101563 35.351563 96.789063 36.453125 96.164063 37.230469 C 95.539063 38.011719 94.460938 38.398438 92.925781 38.398438 C 91.34375 38.398438 90.222656 37.972656 89.558594 37.121094 "/>
<path style=" stroke:none;fill-rule:nonzero;fill:rgb(6.698608%,6.698608%,6.698608%);fill-opacity:1;" d="M 103.710938 33.042969 L 102.808594 27.042969 L 101.925781 33.042969 Z M 101.117188 23.289063 L 104.484375 23.289063 L 107.355469 38.199219 L 104.558594 38.199219 L 104.003906 34.921875 L 101.648438 34.921875 L 101.078125 38.199219 L 98.226563 38.199219 "/>
<path style=" stroke:none;fill-rule:nonzero;fill:rgb(6.698608%,6.698608%,6.698608%);fill-opacity:1;" d="M 109.507813 25.535156 L 107.207031 25.535156 L 107.207031 23.289063 L 114.824219 23.289063 L 114.824219 25.535156 L 112.5625 25.535156 L 112.5625 38.199219 L 109.507813 38.199219 "/>
<path style=" stroke:none;fill-rule:nonzero;fill:rgb(26.699829%,26.699829%,26.699829%);fill-opacity:1;" d="M 120.808594 23.289063 L 126.585938 23.289063 L 126.585938 24.835938 L 122.886719 24.835938 L 122.886719 29.769531 L 125.886719 29.769531 L 125.886719 31.242188 L 122.886719 31.242188 L 122.886719 36.707031 L 126.621094 36.707031 L 126.621094 38.199219 L 120.808594 38.199219 "/>
<path style=" stroke:none;fill-rule:nonzero;fill:rgb(26.699829%,26.699829%,26.699829%);fill-opacity:1;" d="M 128.296875 23.289063 L 129.714844 23.289063 L 133.945313 33.191406 L 133.945313 23.289063 L 135.675781 23.289063 L 135.675781 38.199219 L 134.351563 38.199219 L 130.0625 28.019531 L 130.0625 38.199219 L 128.296875 38.199219 "/>
<path style=" stroke:none;fill-rule:nonzero;fill:rgb(26.699829%,26.699829%,26.699829%);fill-opacity:1;" d="M 138.015625 23.289063 L 143.792969 23.289063 L 143.792969 24.835938 L 140.09375 24.835938 L 140.09375 29.769531 L 143.09375 29.769531 L 143.09375 31.242188 L 140.09375 31.242188 L 140.09375 36.707031 L 143.828125 36.707031 L 143.828125 38.199219 L 138.015625 38.199219 "/>
<path style=" stroke:none;fill-rule:nonzero;fill:rgb(26.699829%,26.699829%,26.699829%);fill-opacity:1;" d="M 148.375 29.714844 C 149.273438 29.714844 149.914063 29.535156 150.300781 29.179688 C 150.683594 28.824219 150.878906 28.179688 150.878906 27.246094 C 150.878906 26.632813 150.8125 26.152344 150.675781 25.800781 C 150.539063 25.453125 150.300781 25.195313 149.960938 25.027344 C 149.613281 24.863281 149.128906 24.78125 148.503906 24.78125 L 147.585938 24.78125 L 147.585938 29.714844 Z M 145.503906 23.289063 L 148.503906 23.289063 C 150.015625 23.289063 151.121094 23.601563 151.828125 24.21875 C 152.53125 24.839844 152.886719 25.847656 152.886719 27.246094 C 152.886719 29.160156 152.273438 30.320313 151.042969 30.726563 L 153.160156 38.195313 L 151.152344 38.195313 L 149.203125 31.203125 L 147.585938 31.203125 L 147.585938 38.195313 L 145.503906 38.195313 "/>
<path style=" stroke:none;fill-rule:nonzero;fill:rgb(26.699829%,26.699829%,26.699829%);fill-opacity:1;" d="M 155.683594 37.101563 C 155.082031 36.25 154.78125 34.984375 154.78125 33.300781 L 154.78125 28.316406 C 154.78125 27.160156 154.898438 26.214844 155.140625 25.472656 C 155.378906 24.730469 155.789063 24.160156 156.371094 23.761719 C 156.953125 23.359375 157.757813 23.160156 158.773438 23.160156 C 160.148438 23.160156 161.140625 23.511719 161.746094 24.210938 C 162.355469 24.910156 162.65625 26.007813 162.65625 27.503906 L 162.65625 28.058594 L 160.707031 28.058594 L 160.707031 27.597656 C 160.707031 26.886719 160.664063 26.335938 160.578125 25.949219 C 160.492188 25.5625 160.3125 25.273438 160.035156 25.074219 C 159.757813 24.878906 159.351563 24.78125 158.8125 24.78125 C 158.234375 24.78125 157.804688 24.914063 157.523438 25.175781 C 157.242188 25.441406 157.058594 25.792969 156.980469 26.234375 C 156.898438 26.675781 156.859375 27.265625 156.859375 28 L 156.859375 33.523438 C 156.859375 34.664063 156.996094 35.484375 157.273438 35.980469 C 157.550781 36.476563 158.082031 36.726563 158.867188 36.726563 C 159.640625 36.726563 160.171875 36.457031 160.457031 35.914063 C 160.746094 35.375 160.890625 34.511719 160.890625 33.320313 L 160.890625 32.289063 L 158.996094 32.289063 L 158.996094 30.816406 L 162.765625 30.816406 L 162.765625 38.195313 L 161.460938 38.195313 L 161.257813 36.484375 C 160.792969 37.75 159.910156 38.382813 158.609375 38.382813 C 157.257813 38.382813 156.285156 37.957031 155.683594 37.101563 "/>
<g clip-path="url(#clip2)" clip-rule="nonzero">
<path style=" stroke:none;fill-rule:nonzero;fill:rgb(26.699829%,26.699829%,26.699829%);fill-opacity:1;" d="M 167.074219 32.933594 L 163.855469 23.289063 L 165.785156 23.289063 L 168.066406 30.484375 L 170.3125 23.289063 L 172.265625 23.289063 L 169.0625 32.933594 L 169.0625 38.195313 L 167.074219 38.195313 "/>
</g>
</g>
</svg>
