<?xml version="1.0" encoding="UTF-8"?>
<svg xmlns="http://www.w3.org/2000/svg" xmlns:xlink="http://www.w3.org/1999/xlink" width="201.99pt" height="59.48pt" viewBox="0 0 201.99 59.48" version="1.1">
<defs>
<clipPath id="clip1">
  <path d="M 10 8 L 62 8 L 62 59.480469 L 10 59.480469 Z M 10 8 "/>
</clipPath>
<clipPath id="clip2">
  <path d="M 9 52 L 17 52 L 17 59.480469 L 9 59.480469 Z M 9 52 "/>
</clipPath>
<clipPath id="clip3">
  <path d="M 190 22 L 201.988281 22 L 201.988281 44 L 190 44 Z M 190 22 "/>
</clipPath>
</defs>
<g id="surface1">
<g clip-path="url(#clip1)" clip-rule="nonzero">
<path style=" stroke:none;fill-rule:nonzero;fill:rgb(98.799133%,76.499939%,1.998901%);fill-opacity:1;" d="M 58.40625 27.78125 C 57.972656 28.214844 57.054688 28.503906 56.910156 27.203125 C 56.769531 25.902344 56.71875 24.984375 56.71875 24.984375 C 56.71875 24.984375 54.792969 21.5625 54.070313 21.515625 C 53.34375 21.46875 48.238281 24.984375 46.890625 26.480469 C 45.722656 27.769531 45.492188 27.683594 45.492188 29.949219 C 45.492188 31.660156 45.710938 38.113281 45.589844 43.058594 C 45.589844 43.058594 43.417969 43.636719 37.445313 45.226563 C 31.46875 46.816406 29.636719 47.007813 29.636719 47.007813 L 28.625 41.175781 L 28.621094 41.175781 C 28.617188 41.175781 28.605469 41.171875 28.582031 41.167969 C 28.570313 41.167969 28.558594 41.164063 28.546875 41.164063 C 28.53125 41.160156 28.515625 41.160156 28.496094 41.15625 L 25.925781 27.972656 C 25.925781 27.972656 22.117188 26.527344 20.722656 26.140625 C 19.324219 25.757813 18.457031 25.46875 16.671875 26.769531 C 14.890625 28.070313 14.9375 30.621094 14.9375 30.621094 C 14.9375 30.621094 15.371094 31.585938 15.421875 32.070313 C 15.46875 32.550781 14.214844 32.503906 13.398438 32.503906 C 12.578125 32.503906 12.480469 31.058594 13.109375 29.371094 C 13.734375 27.683594 15.035156 25.660156 15.035156 25.660156 C 15.035156 25.660156 16.238281 23.394531 17.109375 22.769531 C 17.109375 22.769531 17.253906 22.429688 18.359375 22.527344 C 19.46875 22.625 25.636719 22.960938 25.636719 22.960938 L 25.691406 20.6875 C 32.382813 19.773438 39.179688 19.3125 45.933594 19.351563 C 45.925781 19.957031 45.90625 20.566406 45.878906 21.179688 C 45.878906 21.179688 50.261719 19.152344 54.019531 19.203125 C 54.019531 19.203125 54.453125 19.152344 54.792969 19.585938 C 55.128906 20.023438 57.199219 22.574219 57.441406 22.960938 C 57.683594 23.347656 58.648438 24.695313 59.273438 25.996094 C 59.273438 25.996094 58.839844 27.347656 58.40625 27.78125 M 59.886719 23.992188 C 54.429688 10.945313 39.433594 4.785156 26.386719 10.238281 C 13.335938 15.6875 7.175781 30.6875 12.628906 43.738281 C 16.214844 52.320313 23.929688 57.925781 32.507813 59.199219 C 31.925781 57.109375 31.34375 54.800781 30.816406 52.347656 C 32.3125 53.335938 33.902344 54.152344 35.585938 54.902344 C 35.578125 54.90625 35.570313 54.90625 35.5625 54.910156 C 35.5625 54.910156 35.683594 57.066406 35.84375 59.476563 C 37.617188 59.507813 39.40625 59.351563 41.191406 58.996094 C 41.148438 58.839844 41.148438 58.59375 41.203125 58.238281 C 41.488281 56.375 42.292969 53 42.449219 50.828125 C 43.578125 49.765625 44.589844 48.503906 45.351563 47.117188 C 45.347656 47.128906 45.347656 47.140625 45.347656 47.152344 C 45.328125 47.296875 45.3125 47.441406 45.292969 47.585938 C 44.738281 51.851563 43.589844 56.398438 42.890625 57.65625 C 42.644531 58.09375 42.34375 58.515625 42.058594 58.8125 C 43.425781 58.488281 44.789063 58.054688 46.128906 57.492188 C 59.175781 52.042969 65.335938 37.042969 59.886719 23.992188 "/>
</g>
<path style=" stroke:none;fill-rule:nonzero;fill:rgb(93.699646%,38.398743%,31.799316%);fill-opacity:1;" d="M 56.457031 21.671875 C 56.929688 22.269531 57.34375 22.800781 57.441406 22.960938 C 57.683594 23.347656 58.648438 24.695313 59.273438 25.996094 C 59.273438 25.996094 58.839844 27.347656 58.40625 27.78125 C 57.972656 28.214844 57.058594 28.503906 56.910156 27.203125 C 56.765625 25.902344 56.71875 24.984375 56.71875 24.984375 C 56.71875 24.984375 54.789063 21.5625 54.070313 21.515625 C 53.347656 21.46875 48.238281 24.984375 46.890625 26.480469 C 45.722656 27.769531 45.492188 27.683594 45.492188 29.949219 C 45.492188 31.449219 45.660156 36.597656 45.621094 41.175781 C 47.429688 41.382813 50.085938 41.882813 50.886719 43.054688 C 50.886719 43.054688 50.597656 35.875 58.695313 39.632813 C 58.695313 39.632813 58.984375 29.851563 70.164063 32.359375 C 70.164063 32.359375 64.496094 25.398438 56.457031 21.671875 "/>
<path style=" stroke:none;fill-rule:nonzero;fill:rgb(93.699646%,38.398743%,31.799316%);fill-opacity:1;" d="M 45.933594 19.351563 C 46.082031 10.835938 44.527344 2.816406 44.527344 2.816406 C 44.527344 2.816406 44.382813 1.515625 43.660156 2.578125 C 42.9375 3.636719 42.457031 6.527344 42.457031 6.527344 C 34.984375 6.09375 29.636719 6.867188 29.636719 6.867188 C 28.816406 4.121094 27.417969 2.914063 26.746094 3.203125 C 26.070313 3.492188 26.023438 6.527344 26.023438 6.527344 L 25.691406 20.6875 C 32.382813 19.773438 39.179688 19.3125 45.933594 19.351563 "/>
<path style=" stroke:none;fill-rule:nonzero;fill:rgb(89.399719%,33.299255%,27.099609%);fill-opacity:1;" d="M 45.351563 47.117188 C 45.476563 46.050781 45.550781 44.632813 45.589844 43.054688 C 45.589844 43.054688 43.417969 43.636719 37.445313 45.222656 C 31.46875 46.8125 29.636719 47.007813 29.636719 47.007813 L 30.746094 52.019531 C 30.769531 52.128906 30.792969 52.238281 30.816406 52.34375 C 32.3125 53.335938 33.902344 54.148438 35.585938 54.898438 C 39.957031 52.734375 42.453125 50.765625 42.453125 50.765625 C 42.453125 50.789063 42.453125 50.808594 42.449219 50.828125 C 43.578125 49.765625 44.589844 48.503906 45.351563 47.117188 "/>
<path style=" stroke:none;fill-rule:nonzero;fill:rgb(0%,0%,0%);fill-opacity:1;" d="M 31.996094 16.214844 C 31.953125 16.125 33.023438 16.898438 33.410156 17.136719 C 33.792969 17.378906 34.023438 17.566406 34.023438 17.734375 C 34.023438 17.902344 33.757813 18.070313 33.394531 18.070313 C 33.035156 18.070313 32.480469 17.949219 32.433594 17.804688 C 32.433594 17.804688 33.035156 17.78125 33.371094 17.78125 L 33.660156 17.78125 C 33.660156 17.78125 32.261719 16.746094 31.996094 16.214844 "/>
<path style=" stroke:none;fill-rule:nonzero;fill:rgb(0%,0%,0%);fill-opacity:1;" d="M 39.5 16.328125 C 39.5 16.328125 38.449219 17.605469 38.410156 17.667969 C 38.371094 17.726563 38.242188 18.007813 38.597656 17.960938 C 38.949219 17.910156 39.710938 17.734375 39.820313 17.675781 C 39.925781 17.617188 39.890625 17.480469 39.703125 17.5 C 39.496094 17.523438 39.015625 17.550781 38.714844 17.605469 L 39.558594 16.34375 C 39.558594 16.34375 39.585938 16.222656 39.5 16.328125 "/>
<path style=" stroke:none;fill-rule:nonzero;fill:rgb(0%,0%,0%);fill-opacity:1;" d="M 36.355469 22.441406 C 36.355469 22.441406 37.167969 22.089844 37.449219 21.429688 C 37.730469 20.773438 37.484375 20.515625 37.007813 20.449219 C 36.527344 20.382813 35.660156 20.417969 35.261719 20.789063 C 34.863281 21.160156 34.917969 21.523438 35.210938 21.746094 C 35.496094 21.972656 36.058594 22.351563 36.355469 22.441406 "/>
<path style=" stroke:none;fill-rule:nonzero;fill:rgb(93.699646%,38.398743%,31.799316%);fill-opacity:1;" d="M 35.949219 23.699219 C 35.949219 23.699219 35.769531 24.074219 35.488281 24.296875 C 35.246094 24.488281 34.917969 24.660156 34.46875 24.683594 C 33.828125 24.71875 33.40625 24.515625 33.011719 24.238281 C 32.804688 24.09375 32.613281 23.980469 32.476563 23.792969 C 32.320313 23.609375 32.117188 23.539063 32.117188 23.539063 C 32.117188 23.539063 32.867188 27.65625 34.695313 28.304688 C 36.519531 28.957031 36.84375 27.554688 36.902344 27.167969 C 36.953125 26.839844 36.902344 25.078125 36.078125 23.929688 C 36.066406 23.625 36.050781 23.832031 35.949219 23.699219 "/>
<path style=" stroke:none;fill-rule:nonzero;fill:rgb(0%,0%,0%);fill-opacity:1;" d="M 34.300781 24.835938 L 34.285156 24.835938 C 32.988281 24.824219 31.984375 23.46875 31.945313 23.414063 C 31.898438 23.347656 31.910156 23.257813 31.976563 23.210938 C 32.039063 23.164063 32.132813 23.175781 32.175781 23.242188 C 32.1875 23.253906 33.136719 24.539063 34.289063 24.546875 L 34.300781 24.546875 C 34.886719 24.546875 35.4375 24.210938 35.9375 23.554688 L 36.078125 23.363281 L 36.179688 23.578125 C 36.183594 23.585938 36.554688 24.335938 37.175781 24.375 C 37.671875 24.40625 38.230469 23.960938 38.796875 23.089844 C 38.839844 23.023438 38.929688 23.003906 38.996094 23.050781 C 39.0625 23.09375 39.082031 23.183594 39.039063 23.25 C 38.402344 24.226563 37.769531 24.703125 37.15625 24.664063 C 36.589844 24.628906 36.210938 24.167969 36.03125 23.898438 C 35.511719 24.519531 34.929688 24.835938 34.300781 24.835938 "/>
<path style=" stroke:none;fill-rule:nonzero;fill:rgb(98.799133%,76.499939%,1.998901%);fill-opacity:1;" d="M 32.796875 35.992188 C 31.996094 34.082031 32.898438 31.886719 34.808594 31.085938 C 36.722656 30.289063 38.917969 31.191406 39.714844 33.101563 C 40.515625 35.011719 39.613281 37.210938 37.703125 38.007813 C 35.789063 38.804688 33.59375 37.902344 32.796875 35.992188 "/>
<path style=" stroke:none;fill-rule:nonzero;fill:rgb(6.698608%,6.698608%,6.698608%);fill-opacity:1;" d="M 33.84375 35.328125 L 37.976563 29.917969 L 37.167969 33.9375 L 39.136719 33.117188 L 35.003906 38.523438 L 35.8125 34.503906 Z M 41.234375 31.503906 L 38.097656 32.8125 L 39.25 27.175781 L 31.746094 36.9375 L 34.882813 35.628906 L 33.730469 41.265625 "/>
<path style=" stroke:none;fill-rule:nonzero;fill:rgb(6.698608%,6.698608%,6.698608%);fill-opacity:1;" d="M 31.402344 33.175781 C 31.160156 32.601563 31.429688 31.945313 32.003906 31.703125 C 32.578125 31.46875 33.234375 31.738281 33.472656 32.308594 C 33.714844 32.882813 33.441406 33.539063 32.871094 33.777344 C 32.296875 34.019531 31.640625 33.746094 31.402344 33.175781 "/>
<path style=" stroke:none;fill-rule:nonzero;fill:rgb(6.698608%,6.698608%,6.698608%);fill-opacity:1;" d="M 38.226563 37.441406 C 38.054688 37.035156 38.246094 36.570313 38.652344 36.402344 C 39.058594 36.234375 39.523438 36.421875 39.691406 36.828125 C 39.859375 37.234375 39.667969 37.699219 39.265625 37.867188 C 38.859375 38.035156 38.394531 37.84375 38.226563 37.441406 "/>
<path style=" stroke:none;fill-rule:nonzero;fill:rgb(6.698608%,6.698608%,6.698608%);fill-opacity:1;" d="M 39.601563 35.53125 C 39.527344 35.355469 39.609375 35.152344 39.789063 35.078125 C 39.964844 35.003906 40.167969 35.085938 40.242188 35.265625 C 40.316406 35.441406 40.234375 35.644531 40.054688 35.71875 C 39.878906 35.792969 39.675781 35.707031 39.601563 35.53125 "/>
<path style=" stroke:none;fill-rule:nonzero;fill:rgb(93.699646%,38.398743%,31.799316%);fill-opacity:1;" d="M 45.875 21.160156 C 45.875 21.160156 43.324219 23.414063 40.792969 26.371094 C 38.261719 29.328125 35.480469 31.265625 35.480469 31.265625 C 35.261719 30.738281 33.851563 29.753906 33.851563 29.753906 C 33.851563 29.753906 30.710938 27.601563 28.648438 25.914063 C 27.464844 24.941406 26.292969 23.738281 25.511719 22.890625 C 25.21875 22.875 24.441406 22.832031 23.496094 22.78125 C 28.207031 29.777344 35.515625 31.617188 35.515625 31.617188 C 36.382813 31.476563 38.804688 29.753906 40.609375 28.34375 C 42.417969 26.933594 45.382813 23.800781 46.574219 22.425781 C 47.179688 21.730469 47.523438 21 47.714844 20.449219 C 46.601563 20.832031 45.875 21.160156 45.875 21.160156 "/>
<path style=" stroke:none;fill-rule:nonzero;fill:rgb(98.799133%,76.499939%,1.998901%);fill-opacity:1;" d="M 65.21875 3.496094 L 56.761719 12.941406 L 55.542969 10.945313 L 63.691406 0 Z M 65.21875 3.496094 "/>
<path style=" stroke:none;fill-rule:nonzero;fill:rgb(98.799133%,76.499939%,1.998901%);fill-opacity:1;" d="M 62.644531 17.257813 L 68.195313 13.144531 L 67.40625 9.414063 L 62.003906 14.222656 Z M 62.644531 17.257813 "/>
<path style=" stroke:none;fill-rule:nonzero;fill:rgb(98.799133%,76.499939%,1.998901%);fill-opacity:1;" d="M 59.921875 49.367188 L 66.050781 52.550781 L 69.0625 50.207031 L 62.367188 47.460938 Z M 59.921875 49.367188 "/>
<path style=" stroke:none;fill-rule:nonzero;fill:rgb(98.799133%,76.499939%,1.998901%);fill-opacity:1;" d="M 1.953125 5.976563 L 5.019531 2.613281 L 14.3125 11.613281 L 13.085938 13.890625 Z M 1.953125 5.976563 "/>
<path style=" stroke:none;fill-rule:nonzero;fill:rgb(98.799133%,76.499939%,1.998901%);fill-opacity:1;" d="M 7.382813 16.28125 L 2.679688 13.152344 L 0.273438 17.015625 L 5.429688 19.414063 Z M 7.382813 16.28125 "/>
<g clip-path="url(#clip2)" clip-rule="nonzero">
<path style=" stroke:none;fill-rule:nonzero;fill:rgb(98.799133%,76.499939%,1.998901%);fill-opacity:1;" d="M 13.90625 52.550781 L 9.359375 55.902344 L 12.164063 59.480469 L 16.183594 55.457031 Z M 13.90625 52.550781 "/>
</g>
<path style=" stroke:none;fill-rule:nonzero;fill:rgb(93.699646%,38.398743%,31.799316%);fill-opacity:1;" d="M 25.925781 27.972656 C 25.925781 27.972656 22.117188 26.527344 20.722656 26.140625 C 19.324219 25.753906 18.457031 25.464844 16.675781 26.769531 C 14.890625 28.070313 14.941406 30.621094 14.941406 30.621094 C 14.941406 30.621094 15.371094 31.585938 15.421875 32.070313 C 15.46875 32.550781 14.214844 32.503906 13.398438 32.503906 C 12.578125 32.503906 12.480469 31.058594 13.105469 29.371094 C 13.734375 27.683594 15.035156 25.660156 15.035156 25.660156 C 9.589844 28.503906 0 35.058594 0 35.058594 C 0 35.058594 2.9375 34.769531 8.191406 35.296875 C 13.445313 35.828125 13.15625 39.972656 13.15625 39.972656 C 13.15625 39.972656 16.675781 39.007813 18.792969 38.863281 C 20.914063 38.71875 21.058594 40.984375 21.058594 40.984375 L 21.589844 44.839844 C 21.589844 44.839844 22.070313 44.210938 24.238281 42.476563 C 26.101563 40.988281 28.125 41.117188 28.625 41.175781 "/>
<path style=" stroke:none;fill-rule:nonzero;fill:rgb(6.698608%,6.698608%,6.698608%);fill-opacity:1;" d="M 85.65625 42.035156 C 84.722656 40.835938 84.257813 39.105469 84.257813 36.84375 L 84.257813 29.335938 C 84.257813 27.023438 84.71875 25.277344 85.644531 24.09375 C 86.566406 22.914063 88.152344 22.324219 90.394531 22.324219 C 92.535156 22.324219 94.046875 22.84375 94.9375 23.886719 C 95.824219 24.933594 96.269531 26.429688 96.269531 28.378906 L 96.269531 30.140625 L 92.128906 30.140625 L 92.128906 28.199219 C 92.128906 27.578125 92.097656 27.078125 92.039063 26.695313 C 91.976563 26.316406 91.824219 26.003906 91.570313 25.75 C 91.324219 25.503906 90.9375 25.375 90.421875 25.375 C 89.644531 25.375 89.144531 25.628906 88.917969 26.128906 C 88.695313 26.628906 88.582031 27.359375 88.582031 28.328125 L 88.582031 37.851563 C 88.582031 38.839844 88.710938 39.570313 88.96875 40.054688 C 89.230469 40.539063 89.714844 40.777344 90.421875 40.777344 C 91.144531 40.777344 91.609375 40.535156 91.820313 40.042969 C 92.023438 39.550781 92.128906 38.820313 92.128906 37.851563 L 92.128906 35.808594 L 96.269531 35.808594 L 96.269531 37.542969 C 96.269531 39.546875 95.832031 41.09375 94.949219 42.1875 C 94.070313 43.285156 92.550781 43.832031 90.394531 43.832031 C 88.167969 43.832031 86.589844 43.234375 85.65625 42.035156 "/>
<path style=" stroke:none;fill-rule:nonzero;fill:rgb(6.698608%,6.698608%,6.698608%);fill-opacity:1;" d="M 105.5625 36.300781 L 104.296875 27.863281 L 103.054688 36.300781 Z M 101.914063 22.582031 L 106.648438 22.582031 L 110.6875 43.550781 L 106.753906 43.550781 L 105.980469 38.941406 L 102.664063 38.941406 L 101.863281 43.550781 L 97.847656 43.550781 "/>
<path style=" stroke:none;fill-rule:nonzero;fill:rgb(6.698608%,6.698608%,6.698608%);fill-opacity:1;" d="M 113.71875 25.738281 L 110.480469 25.738281 L 110.480469 22.582031 L 121.199219 22.582031 L 121.199219 25.738281 L 118.015625 25.738281 L 118.015625 43.550781 L 113.71875 43.550781 "/>
<path style=" stroke:none;fill-rule:nonzero;fill:rgb(26.699829%,26.699829%,26.699829%);fill-opacity:1;" d="M 129.613281 22.582031 L 137.738281 22.582031 L 137.738281 24.753906 L 132.535156 24.753906 L 132.535156 31.691406 L 136.757813 31.691406 L 136.757813 33.765625 L 132.535156 33.765625 L 132.535156 41.453125 L 137.792969 41.453125 L 137.792969 43.546875 L 129.613281 43.546875 "/>
<path style=" stroke:none;fill-rule:nonzero;fill:rgb(26.699829%,26.699829%,26.699829%);fill-opacity:1;" d="M 140.148438 22.582031 L 142.140625 22.582031 L 148.09375 36.507813 L 148.09375 22.582031 L 150.527344 22.582031 L 150.527344 43.546875 L 148.664063 43.546875 L 142.632813 29.234375 L 142.632813 43.546875 L 140.148438 43.546875 "/>
<path style=" stroke:none;fill-rule:nonzero;fill:rgb(26.699829%,26.699829%,26.699829%);fill-opacity:1;" d="M 153.816406 22.582031 L 161.941406 22.582031 L 161.941406 24.753906 L 156.738281 24.753906 L 156.738281 31.691406 L 160.960938 31.691406 L 160.960938 33.765625 L 156.738281 33.765625 L 156.738281 41.453125 L 161.996094 41.453125 L 161.996094 43.546875 L 153.816406 43.546875 "/>
<path style=" stroke:none;fill-rule:nonzero;fill:rgb(26.699829%,26.699829%,26.699829%);fill-opacity:1;" d="M 168.390625 31.613281 C 169.648438 31.613281 170.550781 31.363281 171.09375 30.863281 C 171.636719 30.363281 171.910156 29.457031 171.910156 28.144531 C 171.910156 27.28125 171.8125 26.605469 171.625 26.113281 C 171.433594 25.621094 171.097656 25.261719 170.617188 25.027344 C 170.132813 24.792969 169.449219 24.679688 168.570313 24.679688 L 167.277344 24.679688 L 167.277344 31.613281 Z M 164.351563 22.582031 L 168.570313 22.582031 C 170.695313 22.582031 172.25 23.015625 173.242188 23.886719 C 174.234375 24.761719 174.730469 26.179688 174.730469 28.144531 C 174.730469 30.835938 173.867188 32.46875 172.140625 33.039063 L 175.117188 43.550781 L 172.296875 43.550781 L 169.554688 33.710938 L 167.277344 33.710938 L 167.277344 43.550781 L 164.351563 43.550781 "/>
<path style=" stroke:none;fill-rule:nonzero;fill:rgb(26.699829%,26.699829%,26.699829%);fill-opacity:1;" d="M 178.664063 42.007813 C 177.820313 40.808594 177.398438 39.027344 177.398438 36.664063 L 177.398438 29.648438 C 177.398438 28.027344 177.566406 26.691406 177.902344 25.648438 C 178.238281 24.605469 178.816406 23.800781 179.636719 23.242188 C 180.457031 22.679688 181.582031 22.398438 183.015625 22.398438 C 184.949219 22.398438 186.34375 22.890625 187.195313 23.875 C 188.050781 24.859375 188.476563 26.402344 188.476563 28.507813 L 188.476563 29.285156 L 185.734375 29.285156 L 185.734375 28.636719 C 185.734375 27.636719 185.671875 26.863281 185.554688 26.320313 C 185.433594 25.777344 185.175781 25.367188 184.789063 25.09375 C 184.398438 24.816406 183.824219 24.675781 183.066406 24.675781 C 182.257813 24.675781 181.652344 24.863281 181.257813 25.234375 C 180.859375 25.605469 180.601563 26.101563 180.492188 26.722656 C 180.378906 27.34375 180.324219 28.171875 180.324219 29.207031 L 180.324219 36.972656 C 180.324219 38.578125 180.519531 39.730469 180.90625 40.429688 C 181.296875 41.128906 182.039063 41.476563 183.144531 41.476563 C 184.230469 41.476563 184.980469 41.097656 185.386719 40.339844 C 185.789063 39.578125 185.992188 38.363281 185.992188 36.691406 L 185.992188 35.238281 L 183.328125 35.238281 L 183.328125 33.167969 L 188.632813 33.167969 L 188.632813 43.550781 L 186.796875 43.550781 L 186.511719 41.140625 C 185.855469 42.917969 184.609375 43.808594 182.78125 43.808594 C 180.886719 43.808594 179.511719 43.207031 178.664063 42.007813 "/>
<g clip-path="url(#clip3)" clip-rule="nonzero">
<path style=" stroke:none;fill-rule:nonzero;fill:rgb(26.699829%,26.699829%,26.699829%);fill-opacity:1;" d="M 194.6875 36.144531 L 190.160156 22.582031 L 192.878906 22.582031 L 196.089844 32.703125 L 199.246094 22.582031 L 201.992188 22.582031 L 197.484375 36.144531 L 197.484375 43.550781 L 194.6875 43.550781 "/>
</g>
</g>
</svg>
