<?xml version="1.0" encoding="UTF-8"?>
<svg xmlns="http://www.w3.org/2000/svg" xmlns:xlink="http://www.w3.org/1999/xlink" width="19.96pt" height="19.92pt" viewBox="0 0 19.96 19.92" version="1.1">
<defs>
<clipPath id="clip1">
  <path d="M 9 6 L 19.960938 6 L 19.960938 14 L 9 14 Z M 9 6 "/>
</clipPath>
<clipPath id="clip2">
  <path d="M 0 0 L 9 0 L 9 19.921875 L 0 19.921875 Z M 0 0 "/>
</clipPath>
</defs>
<g id="surface1">
<g clip-path="url(#clip1)" clip-rule="nonzero">
<path style=" stroke:none;fill-rule:nonzero;fill:rgb(0%,0%,0%);fill-opacity:1;" d="M 17.90625 9.398438 L 9.40625 9.398438 L 9.40625 10.601563 L 17.90625 10.601563 L 15.804688 12.699219 L 16.707031 13.601563 L 19.804688 10.5 C 20.007813 10.300781 20.007813 9.898438 19.804688 9.601563 L 16.707031 6.5 L 15.804688 7.398438 "/>
</g>
<g clip-path="url(#clip2)" clip-rule="nonzero">
<path style=" stroke:none;fill-rule:nonzero;fill:rgb(0%,0%,0%);fill-opacity:1;" d="M 8.105469 19.398438 L 8.105469 13.199219 C 8.105469 12.898438 7.804688 12.601563 7.503906 12.601563 L 3.105469 12.601563 C 3.105469 13.300781 3.707031 13.800781 4.304688 13.800781 L 6.804688 13.800781 L 6.804688 18.800781 L 3.105469 18.800781 C 2.105469 18.898438 1.304688 18.101563 1.207031 17.101563 L 1.207031 3.101563 C 1.207031 2.101563 2.003906 1.300781 2.90625 1.300781 L 6.804688 1.300781 L 6.804688 6.300781 L 4.40625 6.300781 C 3.707031 6.300781 3.207031 6.898438 3.207031 7.5 L 7.605469 7.5 C 7.90625 7.5 8.207031 7.199219 8.207031 6.898438 L 8.207031 0.601563 C 8.105469 0.300781 7.804688 0 7.503906 0 L 3.105469 0 C 1.503906 -0.101563 0.105469 1.199219 0.00390625 2.898438 L 0.00390625 16.800781 C -0.09375 18.5 1.207031 19.898438 2.90625 19.898438 L 7.503906 19.898438 C 7.804688 20 8.105469 19.699219 8.105469 19.398438 "/>
</g>
</g>
</svg>
