<?xml version="1.0" encoding="UTF-8"?>
<svg xmlns="http://www.w3.org/2000/svg" xmlns:xlink="http://www.w3.org/1999/xlink" width="16pt" height="16.01pt" viewBox="0 0 16 16.01" version="1.1">
<g id="surface1">
<path style=" stroke:none;fill-rule:nonzero;fill:rgb(13.299561%,12.199402%,12.199402%);fill-opacity:1;" d="M 11.824219 0 L 4.175781 0 C 1.878906 0 0 1.878906 0 4.175781 L 0 11.832031 C 0 14.128906 1.878906 16.007813 4.175781 16.007813 L 11.828125 16.007813 C 14.121094 16.007813 16 14.128906 16 11.832031 L 16 4.175781 C 16 1.878906 14.121094 0 11.824219 0 M 11.824219 1.042969 C 13.550781 1.042969 14.957031 2.449219 14.957031 4.175781 L 14.957031 11.832031 C 14.957031 13.5625 13.550781 14.964844 11.824219 14.964844 L 4.175781 14.964844 C 2.449219 14.964844 1.042969 13.5625 1.042969 11.832031 L 1.042969 4.175781 C 1.042969 2.449219 2.449219 1.042969 4.175781 1.042969 L 11.824219 1.042969 "/>
<path style=" stroke:none;fill-rule:nonzero;fill:rgb(13.299561%,12.199402%,12.199402%);fill-opacity:1;" d="M 8 3.882813 C 5.722656 3.882813 3.875 5.730469 3.875 8.007813 C 3.875 10.289063 5.71875 12.132813 8 12.132813 C 10.277344 12.132813 12.125 10.289063 12.125 8.007813 C 12.125 5.730469 10.277344 3.882813 8 3.882813 M 8 4.925781 C 9.699219 4.925781 11.082031 6.308594 11.082031 8.007813 C 11.082031 9.707031 9.699219 11.09375 8 11.09375 C 6.300781 11.09375 4.917969 9.707031 4.917969 8.007813 C 4.917969 6.308594 6.300781 4.925781 8 4.925781 "/>
<path style=" stroke:none;fill-rule:nonzero;fill:rgb(13.299561%,12.199402%,12.199402%);fill-opacity:1;" d="M 12.273438 2.8125 C 12.789063 2.8125 13.207031 3.230469 13.207031 3.746094 C 13.207031 4.261719 12.789063 4.679688 12.273438 4.679688 C 11.757813 4.679688 11.339844 4.261719 11.339844 3.746094 C 11.339844 3.230469 11.757813 2.8125 12.273438 2.8125 "/>
</g>
</svg>
