<?xml version="1.0" encoding="UTF-8"?>
<svg xmlns="http://www.w3.org/2000/svg" xmlns:xlink="http://www.w3.org/1999/xlink" width="22pt" height="12pt" viewBox="0 0 22 12" version="1.1">
<g id="surface1">
<path style=" stroke:none;fill-rule:nonzero;fill:rgb(0%,0%,0%);fill-opacity:1;" d="M 13.660156 8.3125 C 14.320313 8.3125 14.894531 8.914063 15.503906 9.546875 C 15.867188 9.925781 16.246094 10.320313 16.597656 10.542969 C 17.132813 10.878906 17.566406 10.863281 17.625 10.855469 L 17.699219 10.847656 L 20.488281 10.8125 C 20.617188 10.804688 20.792969 10.757813 20.882813 10.710938 C 20.871094 10.679688 20.847656 10.636719 20.8125 10.582031 C 20.480469 10.035156 19.792969 9.320313 18.84375 8.511719 C 17.972656 7.78125 17.523438 7.398438 17.472656 6.804688 C 17.425781 6.191406 17.835938 5.707031 18.652344 4.746094 C 18.859375 4.503906 19.097656 4.222656 19.363281 3.902344 C 20.503906 2.515625 20.796875 1.890625 20.871094 1.652344 C 20.746094 1.628906 20.394531 1.632813 20.375 1.636719 L 17.175781 1.65625 C 17.035156 1.65625 16.992188 1.683594 16.992188 1.683594 C 16.863281 2 16.398438 3.0625 15.789063 4.007813 C 14.398438 6.15625 13.746094 6.445313 13.289063 6.445313 C 13.140625 6.445313 13 6.40625 12.875 6.332031 C 12.136719 5.898438 12.167969 4.9375 12.1875 4.234375 C 12.191406 4.117188 12.195313 4.007813 12.195313 3.90625 C 12.195313 3.414063 12.214844 2.984375 12.230469 2.617188 C 12.285156 1.339844 12.242188 1.332031 11.953125 1.265625 C 11.652344 1.203125 11.433594 1.15625 10.589844 1.144531 L 10.082031 1.140625 C 9.625 1.140625 9.097656 1.152344 8.6875 1.214844 C 8.753906 1.273438 8.816406 1.335938 8.875 1.40625 C 9.308594 1.945313 9.320313 2.894531 9.316406 3.078125 C 9.410156 4.332031 9.363281 5.96875 8.570313 6.363281 C 8.429688 6.433594 8.28125 6.464844 8.132813 6.464844 C 7.453125 6.464844 6.773438 5.792969 5.621094 3.980469 C 4.964844 2.949219 4.476563 1.828125 4.457031 1.78125 C 4.449219 1.765625 4.417969 1.722656 4.402344 1.710938 C 4.339844 1.667969 4.230469 1.636719 4.167969 1.621094 L 1.234375 1.640625 C 1.21875 1.640625 1.199219 1.640625 1.183594 1.640625 C 1.613281 2.546875 3.695313 6.664063 5.960938 8.816406 C 7.972656 10.71875 10.234375 10.816406 10.667969 10.816406 L 12.027344 10.8125 C 12.058594 10.804688 12.183594 10.765625 12.222656 10.738281 C 12.207031 10.753906 12.214844 10.699219 12.214844 10.664063 C 12.214844 10.460938 12.222656 8.6875 13.371094 8.355469 C 13.464844 8.328125 13.5625 8.3125 13.660156 8.3125 M 17.554688 12 C 17.269531 12 16.695313 11.9375 16.03125 11.519531 C 15.558594 11.226563 15.136719 10.78125 14.722656 10.351563 C 14.402344 10.015625 13.863281 9.457031 13.664063 9.457031 C 13.464844 9.511719 13.308594 10.15625 13.3125 10.652344 C 13.316406 10.738281 13.3125 11.242188 12.96875 11.574219 C 12.660156 11.878906 12.171875 11.945313 12.078125 11.953125 L 10.667969 11.960938 C 9.957031 11.960938 7.472656 11.792969 5.21875 9.660156 C 2.523438 7.101563 0.207031 2.199219 0.109375 1.988281 C -0.0351563 1.640625 -0.0742188 1.179688 0.222656 0.863281 C 0.507813 0.546875 1.015625 0.503906 1.21875 0.496094 L 4.210938 0.480469 L 4.296875 0.484375 C 4.363281 0.496094 4.710938 0.558594 4.996094 0.75 C 5.28125 0.9375 5.429688 1.246094 5.457031 1.308594 C 5.464844 1.324219 5.933594 2.398438 6.539063 3.351563 C 7.5 4.867188 7.929688 5.21875 8.082031 5.300781 C 8.21875 4.984375 8.285156 4.007813 8.21875 3.113281 C 8.21875 2.738281 8.144531 2.28125 8.03125 2.140625 C 7.949219 2.039063 7.71875 1.949219 7.460938 1.917969 L 6.933594 1.390625 C 6.863281 0.890625 7.398438 0.457031 7.773438 0.289063 C 8.316406 0.0507813 9.089844 0 10.082031 0 L 10.601563 0.00390625 C 11.507813 0.0117188 11.792969 0.0664063 12.179688 0.148438 C 13.425781 0.425781 13.382813 1.464844 13.328125 2.671875 C 13.3125 3.023438 13.292969 3.433594 13.292969 3.90625 C 13.292969 4.019531 13.292969 4.144531 13.285156 4.269531 C 13.277344 4.558594 13.261719 5.0625 13.355469 5.261719 C 13.515625 5.152344 13.980469 4.757813 14.875 3.375 C 15.449219 2.484375 15.902344 1.4375 15.984375 1.238281 C 16.121094 0.910156 16.433594 0.519531 17.171875 0.515625 L 20.304688 0.5 C 20.3125 0.496094 20.429688 0.484375 20.582031 0.484375 C 21.300781 0.484375 21.75 0.707031 21.921875 1.136719 C 22.121094 1.632813 22.046875 2.398438 20.199219 4.644531 C 19.925781 4.972656 19.6875 5.253906 19.476563 5.5 C 19.039063 6.019531 18.585938 6.550781 18.570313 6.714844 C 18.609375 6.84375 19.054688 7.222656 19.488281 7.585938 C 20.609375 8.539063 21.34375 9.3125 21.710938 9.929688 C 22.09375 10.503906 22.027344 10.941406 21.902344 11.203125 C 21.589844 11.863281 20.699219 11.945313 20.527344 11.953125 L 17.746094 11.992188 C 17.707031 11.996094 17.640625 12 17.554688 12 "/>
</g>
</svg>
